# xmcd CD database file
#
# Track frame offsets:
#	150
#	9581
#	20586
#	29415
#	41277
#	62522
#	67114
#	148084
#
# Disc length: 3079 seconds
#
# Revision: 0
# Processed by: cddbd v1.5.2PL0 Copyright (c) Steve Scherf et al.
# Submitted via: CDex 1.51
#
DISCID=690c0508
DTITLE=Jens Joneleit - Tom Schüler - Jens Joneleit - Arbitrary
DYEAR=2007
DGENRE=Jazz
TTITLE0=At Dawn
TTITLE1=A Candle lit
TTITLE2=Another Day imagined
TTITLE3=Admidst the Flares
TTITLE4=Antics revealed
TTITLE5=Epilude
TTITLE6=Procession
TTITLE7=Arbitrary
EXTD=YEAR: 2007
EXTT0=
EXTT1=
EXTT2=
EXTT3=
EXTT4=
EXTT5=
EXTT6=
EXTT7=
PLAYORDER=
